<svg width="93" height="34" viewBox="0 0 93 34" fill="none" xmlns="http://www.w3.org/2000/svg">
<path fill-rule="evenodd" clip-rule="evenodd" d="M23.6162 12.0244C23.7871 12.1102 23.9295 12.2246 24.0435 12.3532C24.0577 12.3675 24.0577 12.3675 24.072 12.3675H24.0862L27.3623 10.9521C27.3765 10.9378 27.3908 10.9235 27.3908 10.9092C27.3908 10.8949 27.3908 10.8806 27.3765 10.8663L24.3141 7.79226C24.2999 7.77796 24.2856 7.77796 24.2856 7.77796H24.2714C24.2572 7.77796 24.2429 7.79226 24.2429 7.82086L23.5735 11.9815C23.5877 11.9958 23.6019 12.0244 23.6162 12.0244ZM16.8219 9.23633C16.9786 9.47939 17.0783 9.76535 17.1068 10.0513C17.1068 10.0656 17.121 10.0799 17.1353 10.0942L22.0066 12.196H22.0209C22.0351 12.196 22.0494 12.196 22.0494 12.1817C22.1918 12.0673 22.3627 11.9815 22.5479 11.9243C22.5621 11.9243 22.5764 11.91 22.5764 11.8814L23.374 6.86291C23.374 6.84861 23.374 6.83431 23.3598 6.82002L20.3116 3.74601C20.2974 3.73171 20.2974 3.73171 20.2831 3.73171C20.2689 3.73171 20.2547 3.74601 20.2547 3.7603L16.8219 9.16484C16.8077 9.19344 16.8077 9.22204 16.8219 9.23633ZM33.4586 16.9714L28.2312 11.7098C28.2169 11.6955 28.2027 11.6955 28.2027 11.6955H28.1884L24.6417 13.2254C24.6275 13.2397 24.6132 13.254 24.6132 13.2683C24.6132 13.2826 24.6275 13.3112 24.6417 13.3112L33.3874 17.0715H33.4017C33.4159 17.0715 33.4301 17.0715 33.4301 17.0572L33.4586 17.0286C33.4871 17.0286 33.4871 16.9857 33.4586 16.9714ZM32.5898 17.8293L24.2002 14.2262H24.1859C24.1717 14.2262 24.1574 14.2262 24.1432 14.2405C23.9153 14.5551 23.5735 14.7553 23.1746 14.8124C23.1604 14.8124 23.1319 14.8267 23.1319 14.8553L22.2345 20.4458C22.2345 20.4601 22.2345 20.4743 22.2488 20.4886C22.5621 20.7317 22.7473 21.0892 22.79 21.4895C22.79 21.5181 22.8043 21.5324 22.8328 21.5324L27.9036 22.6047H27.9178C27.932 22.6047 27.9463 22.6047 27.9463 22.5904L32.5898 17.9151C32.604 17.9008 32.604 17.8865 32.604 17.8722C32.604 17.8579 32.604 17.8436 32.5898 17.8293ZM21.4796 13.0538L16.8931 11.0807H16.8789C16.8646 11.0807 16.8504 11.095 16.8361 11.1093C16.5228 11.5955 15.9958 11.8814 15.426 11.8814C15.3405 11.8814 15.2551 11.8671 15.1554 11.8528H15.1411C15.1269 11.8528 15.1126 11.8671 15.0984 11.8814L11.3238 17.815C11.3096 17.8293 11.3096 17.8579 11.3238 17.8722C11.338 17.8865 11.3523 17.8865 11.3665 17.8865H11.3808L21.4511 13.5257C21.4654 13.5114 21.4796 13.4971 21.4796 13.4828V13.4256V13.3541C21.4796 13.2683 21.4939 13.1825 21.5081 13.111C21.5081 13.0824 21.4939 13.0681 21.4796 13.0538ZM27.0062 23.434L22.5479 22.5046H22.5337C22.5194 22.5046 22.5052 22.5189 22.4909 22.5189C22.32 22.7334 22.1063 22.905 21.85 23.005C21.8357 23.005 21.8215 23.0336 21.8215 23.0479L20.7532 29.7107C20.7532 29.7393 20.7674 29.7536 20.7817 29.7679H20.8102C20.8244 29.7679 20.8386 29.7679 20.8386 29.7536L27.0204 23.5341C27.0347 23.5198 27.0347 23.5055 27.0347 23.4912C27.0347 23.4483 27.0204 23.434 27.0062 23.434ZM20.7817 22.9764C20.3544 22.8049 20.041 22.4188 19.927 21.9756C19.927 21.9613 19.9128 21.947 19.8843 21.9327L11.6229 20.2027C11.6229 20.2027 11.6229 20.2027 11.6087 20.2027C11.5944 20.2027 11.5802 20.217 11.5659 20.2313C11.5232 20.3028 11.4947 20.36 11.452 20.4172C11.4378 20.4315 11.4378 20.4601 11.452 20.4743L18.9727 31.5122C18.987 31.5265 18.987 31.5265 19.0012 31.5265C19.0154 31.5265 19.0297 31.5265 19.0297 31.5122L19.4855 31.0547C19.4855 31.0404 19.4997 31.0404 19.4997 31.0261L20.7817 23.0193C20.8102 23.0193 20.8102 22.9907 20.7817 22.9764ZM11.7938 19.1876C11.7938 19.2161 11.8081 19.2304 11.8366 19.2304L20.0268 20.9462H20.041C20.0552 20.9462 20.0695 20.9319 20.0837 20.9176C20.3259 20.4886 20.7532 20.2027 21.2375 20.1741C21.266 20.1741 21.2802 20.1598 21.2802 20.1312L22.1633 14.6266C22.1633 14.6123 22.1633 14.5837 22.1348 14.5837C22.0779 14.5408 22.0209 14.4979 21.9497 14.4264C21.9354 14.4121 21.9212 14.4121 21.9212 14.4121H21.9069L11.7796 18.8015C11.7511 18.8158 11.7511 18.8301 11.7511 18.8587C11.7654 18.9731 11.7938 19.0732 11.7938 19.1876ZM8.3611 20.5744C8.31837 20.5172 8.27563 20.46 8.2329 20.3886C8.21866 20.3743 8.20442 20.36 8.19017 20.36H8.17593L4.64347 21.8898C4.62923 21.8898 4.61498 21.9041 4.61498 21.9184C4.61498 21.9327 4.61498 21.947 4.62923 21.9613L6.35273 23.6913C6.36697 23.7056 6.38121 23.7056 6.38121 23.7056C6.39546 23.7056 6.4097 23.6913 6.42394 23.677L8.37534 20.603C8.37534 20.603 8.37534 20.5887 8.3611 20.5744ZM10.6971 21.132C10.6828 21.1177 10.6686 21.1034 10.6543 21.1034H10.6401C10.3837 21.2178 10.1273 21.275 9.85669 21.275C9.64304 21.275 9.44362 21.2464 9.22997 21.1749H9.21572C9.20148 21.1749 9.18724 21.1892 9.17299 21.2035L7.12189 24.4348L7.10765 24.4491C7.0934 24.4634 7.0934 24.492 7.10765 24.5063L16.537 33.9857C16.5513 34 16.5655 34 16.5655 34C16.5798 34 16.594 34 16.594 33.9857L18.2463 32.3129C18.2605 32.2986 18.2605 32.27 18.2463 32.2557L10.6971 21.132ZM9.37241 17.4003C9.38665 17.4146 9.40089 17.4289 9.41514 17.4289H9.42938C9.57182 17.4003 9.7285 17.3717 9.87094 17.3717C10.0276 17.3717 10.1985 17.4003 10.3552 17.4432H10.3695C10.3837 17.4432 10.398 17.4289 10.4122 17.4146L14.2295 11.4096C14.2438 11.3953 14.2438 11.3667 14.2295 11.3524C13.9304 11.0378 13.7595 10.6232 13.7595 10.18C13.7595 10.0513 13.7737 9.92262 13.8022 9.79394C13.8022 9.76535 13.788 9.75105 13.7737 9.73675C13.2894 9.52229 9.00207 7.69218 9.00207 7.67788H8.98782C8.97358 7.67788 8.95934 7.67788 8.95934 7.69218L5.32717 11.3524C5.31293 11.3667 5.31293 11.3953 5.32717 11.4096L9.37241 17.4003ZM9.78548 6.9344C9.78548 6.9344 14.1156 8.7931 14.3008 8.87889H14.315C14.3292 8.87889 14.3292 8.87889 14.3435 8.86459C14.6426 8.62153 15.0272 8.47855 15.4118 8.47855C15.5969 8.47855 15.7821 8.50715 15.9673 8.56434H15.9815C15.9958 8.56434 16.01 8.55004 16.0243 8.53574L19.5425 3.00252C19.5567 2.98823 19.5567 2.95963 19.5425 2.94533L16.6225 0.0142977C16.6082 0 16.6082 0 16.594 0C16.5798 0 16.5655 0 16.5655 0.0142977L9.78548 6.84861C9.77123 6.86291 9.77123 6.87721 9.77123 6.89151C9.75699 6.9201 9.77123 6.9201 9.78548 6.9344ZM8.10471 18.4441C8.11895 18.4441 8.1332 18.4298 8.14744 18.4155C8.2329 18.2439 8.3611 18.0866 8.48929 17.9436C8.50353 17.9294 8.50353 17.9008 8.48929 17.8865C8.44656 17.8293 4.5865 12.1674 4.5865 12.1531C4.57225 12.1388 4.57225 12.1388 4.54377 12.1245C4.52952 12.1245 4.51528 12.1245 4.51528 12.1388L0.0142438 16.6569C0 16.6712 0 16.6854 0 16.6997C0 16.714 0.0142438 16.7283 0.0427313 16.7283L8.10471 18.4441C8.09047 18.4441 8.09047 18.4441 8.10471 18.4441ZM7.73437 19.4306C7.73437 19.402 7.72013 19.3877 7.69164 19.3877L0.697945 17.9151C0.697945 17.9151 0.697945 17.9151 0.683701 17.9151C0.669458 17.9151 0.655214 17.9294 0.64097 17.9436C0.626726 17.9579 0.64097 17.9865 0.655214 18.0008L3.7746 21.1463C3.78885 21.1606 3.80309 21.1606 3.80309 21.1606H3.81733L7.69164 19.4878C7.72013 19.4592 7.73437 19.4449 7.73437 19.4306Z" fill="white"/>
<path fill-rule="evenodd" clip-rule="evenodd" d="M67.5019 14.765H69.7772V29.3121H67.5019V14.765ZM44.2222 18.8694C42.9992 18.8694 42.0179 19.3301 41.2642 20.2376L41.1931 19.0509H39.06V29.2981H41.3353V22.0106C41.7904 21.173 42.473 20.7541 43.3832 20.7541C44.0089 20.7541 44.464 20.9077 44.7484 21.2288C45.0328 21.5359 45.1608 22.0246 45.1608 22.6667V29.2981H47.4361V22.5271C47.4077 20.098 46.3411 18.8694 44.2222 18.8694ZM54.0489 18.8694C53.1814 18.8694 52.3992 19.0928 51.6882 19.5395C50.9771 19.9863 50.4367 20.6145 50.0386 21.4242C49.6546 22.234 49.4555 23.1414 49.4555 24.1606V24.4398C49.4555 25.9615 49.9106 27.19 50.8065 28.1114C51.7024 29.0328 52.8685 29.4936 54.3191 29.4936C55.1581 29.4936 55.926 29.326 56.6086 28.991C57.2912 28.6559 57.8316 28.1812 58.2298 27.567L57.0068 26.3803C56.3527 27.2319 55.4994 27.6647 54.4613 27.6647C53.7218 27.6647 53.0961 27.4134 52.6125 26.9248C52.1148 26.4362 51.8446 25.766 51.7735 24.9144H58.4005V23.993C58.4005 22.3596 58.0165 21.1031 57.277 20.2097C56.4949 19.3162 55.4283 18.8694 54.0489 18.8694ZM56.1251 23.2252H51.7877C51.8873 22.4294 52.1433 21.8151 52.5272 21.3824C52.9112 20.9356 53.4231 20.7262 54.0489 20.7262C54.6746 20.7262 55.1723 20.9217 55.5278 21.3126C55.8834 21.7035 56.0825 22.2898 56.1393 23.0577V23.2252H56.1251ZM63.52 27.3296C63.3636 27.1621 63.2925 26.8689 63.2925 26.478V20.7541H65.0843V19.0509H63.2925V16.5659H61.0171V19.0509H59.3533V20.7541H61.0171V26.5618C61.0171 28.5163 61.8988 29.4936 63.648 29.4936C64.1315 29.4936 64.6292 29.4238 65.1554 29.2702V27.4832C64.8852 27.553 64.615 27.5809 64.359 27.5809C63.9466 27.5949 63.6764 27.5111 63.52 27.3296ZM73.304 19.0649H75.5793V29.3121H73.304V19.0649ZM88.492 26.0173L86.3446 19.0649H83.8844L87.4538 29.2562L87.1268 30.1357C86.9561 30.6383 86.7286 30.9874 86.4299 31.1968C86.1455 31.4062 85.7047 31.5179 85.1358 31.5179L84.7092 31.4899V33.2769C85.1074 33.3886 85.4771 33.4444 85.8042 33.4444C87.2832 33.4444 88.3355 32.5789 88.9613 30.8617L93 19.0649H90.5682L88.492 26.0173ZM80.0447 15.4909C79.419 16.1052 79.1061 16.9847 79.1061 18.1295V19.0649H77.5561V20.7681H79.1061V29.3121H81.3815V20.7681H83.4435V19.0649H81.3815V18.1574C81.3815 17.0266 81.9219 16.4682 83.0169 16.4682C83.344 16.4682 83.6426 16.4961 83.8844 16.538L83.9413 14.737C83.4862 14.6254 83.0738 14.5695 82.6614 14.5695C81.5521 14.5556 80.6704 14.8767 80.0447 15.4909ZM75.5793 14.5556V16.5659H73.304V14.5556H75.5793Z" fill="white"/>
<path fill-rule="evenodd" clip-rule="evenodd" d="M39 10.7088V5.08117H40.9326C41.6206 5.08117 42.1875 5.30084 42.6332 5.74018C43.079 6.17952 43.3019 6.74318 43.3019 7.43118V8.36268C43.3019 9.05326 43.079 9.61692 42.6332 10.0537C42.1875 10.4905 41.6206 10.7088 40.9326 10.7088H39ZM40.1286 5.95083V9.84304H40.8746C41.2792 9.84304 41.5961 9.70647 41.8254 9.43333C42.0548 9.16019 42.1694 8.80331 42.1694 8.36268V7.42345C42.1694 6.98798 42.0548 6.63367 41.8254 6.36053C41.5961 6.08739 41.2792 5.95083 40.8746 5.95083H40.1286ZM48.6358 8.23513H46.3051V9.84304H49.0301V10.7088H45.1765V5.08117H49.0223V5.95083H46.3051V7.36547H48.6358V8.23513ZM51.84 8.66803V10.7088H50.7114V5.08117H52.9532C53.6 5.08117 54.1089 5.24608 54.4799 5.57591C54.851 5.90574 55.0365 6.33992 55.0365 6.87846C55.0365 7.41701 54.851 7.84991 54.4799 8.17716C54.1089 8.50441 53.6 8.66803 52.9532 8.66803H51.84ZM51.84 7.79837H52.9532C53.2676 7.79837 53.5059 7.71269 53.6683 7.54134C53.8306 7.36998 53.9118 7.1516 53.9118 6.8862C53.9118 6.61563 53.8312 6.3921 53.6702 6.21559C53.5091 6.03908 53.2701 5.95083 52.9532 5.95083H51.84V7.79837ZM57.9856 9.84304H60.4903V10.7088H56.857V5.08117H57.9856V9.84304ZM66.4271 8.40133C66.4271 9.09191 66.2088 9.66266 65.772 10.1136C65.3352 10.5645 64.7677 10.79 64.0694 10.79C63.3762 10.79 62.8132 10.5645 62.3803 10.1136C61.9474 9.66266 61.731 9.09191 61.731 8.40133V7.38867C61.731 6.70066 61.9468 6.13056 62.3784 5.67833C62.81 5.22611 63.3724 5 64.0655 5C64.7638 5 65.332 5.22611 65.7701 5.67833C66.2081 6.13056 66.4271 6.70066 66.4271 7.38867V8.40133ZM65.2985 7.38093C65.2985 6.94288 65.189 6.58343 64.97 6.30256C64.7509 6.02169 64.4495 5.88126 64.0655 5.88126C63.6816 5.88126 63.384 6.02104 63.1727 6.30062C62.9614 6.5802 62.8557 6.94031 62.8557 7.38093V8.40133C62.8557 8.84712 62.9627 9.21044 63.1765 9.49131C63.3904 9.77218 63.688 9.91261 64.0694 9.91261C64.4559 9.91261 64.7574 9.77218 64.9738 9.49131C65.1903 9.21044 65.2985 8.84712 65.2985 8.40133V7.38093ZM70.0642 7.67469H70.0874L71.3166 5.08117H72.5534L70.6208 8.72987V10.7088H69.4961V8.6719L67.5983 5.08117H68.8351L70.0642 7.67469ZM77.0524 9.24007C77.0524 9.02362 76.9758 8.84969 76.8225 8.71828C76.6691 8.58686 76.4005 8.46318 76.0166 8.34722C75.3466 8.15396 74.8403 7.92463 74.4976 7.65923C74.1549 7.39382 73.9835 7.0305 73.9835 6.56925C73.9835 6.10801 74.18 5.73116 74.5729 5.43869C74.9659 5.14623 75.4677 5 76.0784 5C76.6968 5 77.2006 5.16427 77.5897 5.49281C77.9788 5.82135 78.1669 6.22654 78.154 6.7084L78.1463 6.73159H77.0524C77.0524 6.47133 76.9655 6.26068 76.7915 6.09964C76.6176 5.93859 76.3735 5.85806 76.0591 5.85806C75.7576 5.85806 75.5244 5.92506 75.3595 6.05905C75.1946 6.19305 75.1121 6.3644 75.1121 6.57312C75.1121 6.7638 75.2004 6.92034 75.3769 7.04273C75.5534 7.16513 75.8581 7.29461 76.291 7.43118C76.912 7.60383 77.3823 7.83187 77.7018 8.11531C78.0213 8.39876 78.1811 8.7711 78.1811 9.23234C78.1811 9.7142 77.991 10.0943 77.611 10.3726C77.2309 10.6509 76.7291 10.79 76.1055 10.79C75.4922 10.79 74.9575 10.6322 74.5014 10.3165C74.0453 10.0009 73.8237 9.55831 73.8366 8.98884L73.8444 8.96565H74.9421C74.9421 9.30063 75.0445 9.54606 75.2493 9.70196C75.4542 9.85786 75.7396 9.9358 76.1055 9.9358C76.4121 9.9358 76.6466 9.87267 76.8089 9.74641C76.9713 9.62015 77.0524 9.45137 77.0524 9.24007ZM82.9855 10.7088V5.08117H84.8871C85.5493 5.08117 86.066 5.21001 86.437 5.46768C86.8081 5.72536 86.9936 6.11058 86.9936 6.62336C86.9936 6.88362 86.9247 7.11617 86.7868 7.32102C86.649 7.52588 86.4486 7.67984 86.1858 7.78291C86.5233 7.85506 86.7765 8.00966 86.9453 8.24673C87.1141 8.48379 87.1985 8.75822 87.1985 9.07001C87.1985 9.60855 87.0207 10.0163 86.6651 10.2933C86.3095 10.5703 85.8057 10.7088 85.1538 10.7088H82.9855ZM84.1141 8.21967V9.84304H85.1538C85.4527 9.84304 85.6807 9.77797 85.8379 9.64785C85.9951 9.51772 86.0737 9.32511 86.0737 9.07001C86.0737 8.79429 86.0067 8.58364 85.8727 8.43805C85.7387 8.29247 85.5274 8.21967 85.2388 8.21967H84.1141ZM84.1141 7.43891H84.9258C85.2272 7.43891 85.4591 7.37707 85.6215 7.25338C85.7838 7.1297 85.865 6.94933 85.865 6.71226C85.865 6.45201 85.7832 6.26004 85.6196 6.13636C85.4559 6.01267 85.2118 5.95083 84.8871 5.95083H84.1141V7.43891ZM90.5109 7.67469H90.5341L91.7632 5.08117H93.0001L91.0675 8.72987V10.7088H89.9427V8.6719L88.0449 5.08117H89.2818L90.5109 7.67469Z" fill="#BCBCBC"/>
</svg>
