<svg width="109" height="36" viewBox="0 0 109 36" fill="none" xmlns="http://www.w3.org/2000/svg">
<g opacity="0.6">
<path d="M46 3.6C46.5045 3.59388 47.0016 3.72229 47.44 3.972C47.872 4.212 48.212 4.54 48.46 4.956C48.716 5.372 48.844 5.836 48.844 6.348C48.844 6.86 48.72 7.328 48.472 7.752C48.2223 8.16959 47.8662 8.51332 47.44 8.748C47.008 8.988 46.528 9.108 46 9.108H44.392V12H43V3.6H46ZM45.976 7.776C46.1685 7.78124 46.36 7.74783 46.5393 7.67775C46.7186 7.60767 46.8821 7.50235 47.02 7.368C47.308 7.096 47.452 6.756 47.452 6.348C47.452 5.94 47.308 5.604 47.02 5.34C46.8821 5.20566 46.7186 5.10033 46.5393 5.03025C46.36 4.96017 46.1685 4.92676 45.976 4.932H44.392V7.776H45.976ZM52.492 12.144C51.948 12.144 51.444 12.004 50.98 11.724C50.5231 11.435 50.1472 11.0344 49.888 10.56C49.6161 10.0723 49.4755 9.52236 49.48 8.964C49.48 8.38 49.616 7.848 49.888 7.368C50.1454 6.89538 50.5218 6.49825 50.98 6.216C51.4327 5.93124 51.9572 5.78139 52.492 5.784C53.036 5.784 53.536 5.928 53.992 6.216C54.456 6.496 54.824 6.88 55.096 7.368C55.3698 7.85493 55.5105 8.4054 55.504 8.964C55.504 9.54 55.368 10.072 55.096 10.56C54.8346 11.0368 54.4543 11.4378 53.992 11.724C53.536 12.004 53.036 12.144 52.492 12.144ZM52.492 10.92C52.804 10.92 53.088 10.836 53.344 10.668C53.608 10.5 53.816 10.268 53.968 9.972C54.12 9.676 54.196 9.34 54.196 8.964C54.196 8.588 54.12 8.252 53.968 7.956C53.8267 7.67188 53.6111 7.43136 53.344 7.26C53.0914 7.09302 52.7948 7.00527 52.492 7.008C52.18 7.008 51.892 7.092 51.628 7.26C51.372 7.428 51.168 7.66 51.016 7.956C50.8601 8.2688 50.7819 8.61456 50.788 8.964C50.788 9.34 50.864 9.676 51.016 9.972C51.168 10.268 51.372 10.5 51.628 10.668C51.892 10.836 52.18 10.92 52.492 10.92ZM62.024 10.056L63.296 5.928H64.604L62.6 12H61.508L60.272 8.148L59.06 12H57.968L55.964 5.928H57.32L58.58 10.032L59.888 5.928H60.716L62.024 10.056V10.056ZM70.935 8.832C70.935 9.088 70.911 9.304 70.863 9.48H66.363C66.443 9.936 66.635 10.296 66.939 10.56C67.243 10.824 67.611 10.956 68.043 10.956C68.355 10.956 68.619 10.896 68.835 10.776C69.051 10.656 69.223 10.504 69.351 10.32H70.719C70.599 10.624 70.411 10.916 70.155 11.196C69.8963 11.484 69.582 11.7167 69.231 11.88C68.871 12.056 68.479 12.144 68.055 12.144C67.503 12.144 66.995 12.004 66.531 11.724C66.075 11.444 65.711 11.064 65.439 10.584C65.1726 10.086 65.0363 9.52875 65.043 8.964C65.043 8.38 65.179 7.848 65.451 7.368C65.7084 6.89538 66.0848 6.49825 66.543 6.216C66.9918 5.93237 67.5121 5.78251 68.043 5.784C68.579 5.784 69.067 5.92 69.507 6.192C69.947 6.456 70.295 6.82 70.551 7.284C70.807 7.748 70.935 8.264 70.935 8.832V8.832ZM68.043 6.972C67.627 6.972 67.263 7.112 66.951 7.392C66.639 7.664 66.443 8.028 66.363 8.484H69.651C69.579 8.036 69.395 7.672 69.099 7.392C68.9592 7.25605 68.794 7.14898 68.6128 7.07691C68.4316 7.00484 68.238 6.96919 68.043 6.972V6.972ZM72.106 12V5.928H73.09L73.33 6.6H73.39C73.518 6.416 73.714 6.236 73.978 6.06C74.242 5.876 74.546 5.784 74.89 5.784C75.09 5.784 75.258 5.8 75.394 5.832V7.152C75.2161 7.1176 75.0352 7.10152 74.854 7.104C74.43 7.104 74.086 7.24 73.822 7.512C73.558 7.784 73.426 8.16 73.426 8.64V12H72.106ZM81.599 8.832C81.599 9.088 81.575 9.304 81.527 9.48H77.027C77.107 9.936 77.299 10.296 77.603 10.56C77.907 10.824 78.275 10.956 78.707 10.956C79.019 10.956 79.283 10.896 79.499 10.776C79.715 10.656 79.887 10.504 80.015 10.32H81.383C81.263 10.624 81.075 10.916 80.819 11.196C80.5603 11.484 80.246 11.7167 79.895 11.88C79.535 12.056 79.143 12.144 78.719 12.144C78.167 12.144 77.659 12.004 77.195 11.724C76.739 11.444 76.375 11.064 76.103 10.584C75.8365 10.086 75.7003 9.52875 75.707 8.964C75.707 8.38 75.843 7.848 76.115 7.368C76.3724 6.89538 76.7488 6.49825 77.207 6.216C77.6558 5.93237 78.1761 5.78251 78.707 5.784C79.243 5.784 79.731 5.92 80.171 6.192C80.611 6.456 80.959 6.82 81.215 7.284C81.471 7.748 81.599 8.264 81.599 8.832V8.832ZM78.707 6.972C78.291 6.972 77.927 7.112 77.615 7.392C77.303 7.664 77.107 8.028 77.027 8.484H80.315C80.243 8.036 80.059 7.672 79.763 7.392C79.6232 7.25605 79.458 7.14898 79.2768 7.07691C79.0956 7.00484 78.902 6.96919 78.707 6.972V6.972ZM85.218 12.144C84.722 12.144 84.258 12.008 83.826 11.736C83.3951 11.4484 83.0441 11.0561 82.806 10.596C82.5461 10.0917 82.4142 9.53126 82.422 8.964C82.422 8.364 82.55 7.824 82.806 7.344C83.0397 6.88082 83.3915 6.48756 83.826 6.204C84.258 5.924 84.722 5.784 85.218 5.784C85.498 5.784 85.758 5.832 85.998 5.928C86.246 6.016 86.45 6.124 86.61 6.252C86.77 6.372 86.878 6.476 86.934 6.564H86.994V3.6H88.314V12H87.33L87.09 11.316H87.03C86.902 11.492 86.674 11.676 86.346 11.868C86.0004 12.0564 85.6116 12.1515 85.218 12.144V12.144ZM85.362 10.92C85.658 10.92 85.93 10.84 86.178 10.68C86.426 10.512 86.622 10.28 86.766 9.984C86.918 9.68 86.994 9.34 86.994 8.964C86.994 8.588 86.918 8.252 86.766 7.956C86.6399 7.673 86.436 7.43164 86.178 7.26C85.9382 7.09455 85.6534 7.0066 85.362 7.008C85.066 7.008 84.794 7.092 84.546 7.26C84.298 7.42 84.098 7.652 83.946 7.956C83.7978 8.27105 83.7239 8.6159 83.73 8.964C83.73 9.34 83.802 9.68 83.946 9.984C84.098 10.28 84.298 10.512 84.546 10.68C84.794 10.84 85.066 10.92 85.362 10.92ZM96.027 12.144C95.6295 12.1525 95.2366 12.0574 94.887 11.868C94.567 11.676 94.343 11.492 94.215 11.316H94.155L93.915 12H92.931V3.6H94.251V6.564H94.311C94.367 6.476 94.475 6.372 94.635 6.252C94.795 6.124 94.995 6.016 95.235 5.928C95.483 5.832 95.747 5.784 96.027 5.784C96.523 5.784 96.983 5.924 97.407 6.204C97.839 6.476 98.183 6.856 98.439 7.344C98.695 7.824 98.823 8.364 98.823 8.964C98.823 9.564 98.695 10.108 98.439 10.596C98.183 11.076 97.839 11.456 97.407 11.736C96.9968 12.0039 96.517 12.1458 96.027 12.144V12.144ZM95.883 10.92C96.179 10.92 96.451 10.84 96.699 10.68C96.947 10.512 97.143 10.28 97.287 9.984C97.439 9.68 97.515 9.34 97.515 8.964C97.515 8.588 97.439 8.252 97.287 7.956C97.1609 7.673 96.9569 7.43164 96.699 7.26C96.4592 7.09455 96.1744 7.0066 95.883 7.008C95.587 7.008 95.315 7.092 95.067 7.26C94.819 7.42 94.619 7.652 94.467 7.956C94.3188 8.27105 94.2449 8.6159 94.251 8.964C94.251 9.34 94.323 9.68 94.467 9.984C94.619 10.28 94.819 10.512 95.067 10.68C95.315 10.84 95.587 10.92 95.883 10.92ZM103.755 5.928H105.111L102.591 12.336C102.311 13.032 102.019 13.52 101.715 13.8C101.577 13.9351 101.414 14.0418 101.235 14.1139C101.056 14.1859 100.864 14.222 100.671 14.22C100.431 14.22 100.215 14.18 100.023 14.1V12.9C100.151 12.9593 100.29 12.9881 100.431 12.984C100.663 12.984 100.855 12.924 101.007 12.804C101.167 12.692 101.299 12.5 101.403 12.228L101.547 11.844L99.159 5.928H100.575L102.195 10.236L103.755 5.928Z" fill="white"/>
</g>
<path d="M48.12 32.24C51.24 32.24 52.96 30.52 52.96 28.24C52.96 23.2 45.64 24.76 45.64 21.72C45.64 20.66 46.46 19.86 47.96 19.86C49.44 19.86 50.36 20.82 50.44 22.18H52.76C52.64 19.7 50.82 17.76 47.96 17.76C45.04 17.76 43.32 19.46 43.32 21.68C43.32 26.66 50.64 25.2 50.64 28.3C50.64 29.32 49.82 30.14 48.14 30.14C46.42 30.14 45.46 29.14 45.32 27.7H43C43.12 30.32 45.02 32.24 48.12 32.24ZM58.729 32.24C59.269 32.24 59.669 32.14 59.929 32.04V30.04C59.729 30.14 59.489 30.18 59.229 30.18C58.329 30.18 57.729 29.66 57.729 28.54V23.86H59.929V21.88H57.729V19.28H55.829V20.8C55.829 21.58 55.409 22 54.609 22H53.889V23.86H55.549V28.72C55.549 30.94 56.889 32.24 58.729 32.24V32.24ZM70.945 26.72C70.945 23.84 68.825 21.64 66.125 21.64C63.405 21.64 61.125 23.98 61.125 26.94C61.125 29.94 63.345 32.24 66.145 32.24C68.365 32.24 70.025 30.66 70.585 29.2H68.305C67.945 29.72 67.265 30.26 66.125 30.26C64.685 30.26 63.605 29.34 63.325 27.8H70.825C70.885 27.58 70.945 27.2 70.945 26.72ZM66.125 23.62C67.485 23.62 68.565 24.64 68.805 26.14H63.325C63.605 24.6 64.745 23.62 66.125 23.62ZM75.196 32V18H72.996V32H75.196ZM80.137 32V18H77.937V32H80.137ZM86.579 21.64C84.139 21.64 82.759 23.26 82.579 24.96H84.779C84.899 24.3 85.459 23.62 86.559 23.62C87.699 23.62 88.439 24.36 88.439 25.58V25.92H86.819C84.039 25.92 82.119 27.2 82.119 29.22C82.119 30.88 83.539 32.24 85.519 32.24C87.139 32.24 88.079 31.38 88.479 30.86H88.579L88.979 32H90.619V25.76C90.619 23.3 89.059 21.64 86.579 21.64V21.64ZM85.979 30.38C84.879 30.38 84.319 29.82 84.319 29.04C84.319 28.12 85.119 27.5 86.839 27.5H88.439V28.14C88.439 29.34 87.479 30.38 85.979 30.38ZM96.736 32.24C97.276 32.24 97.676 32.14 97.936 32.04V30.04C97.736 30.14 97.496 30.18 97.236 30.18C96.336 30.18 95.736 29.66 95.736 28.54V23.86H97.936V21.88H95.736V19.28H93.836V20.8C93.836 21.58 93.416 22 92.616 22H91.896V23.86H93.556V28.72C93.556 30.94 94.896 32.24 96.736 32.24V32.24ZM108.952 26.72C108.952 23.84 106.832 21.64 104.132 21.64C101.412 21.64 99.132 23.98 99.132 26.94C99.132 29.94 101.352 32.24 104.152 32.24C106.372 32.24 108.032 30.66 108.592 29.2H106.312C105.952 29.72 105.272 30.26 104.132 30.26C102.692 30.26 101.612 29.34 101.332 27.8H108.832C108.892 27.58 108.952 27.2 108.952 26.72ZM104.132 23.62C105.492 23.62 106.572 24.64 106.812 26.14H101.332C101.612 24.6 102.752 23.62 104.132 23.62Z" fill="white"/>
<path fill-rule="evenodd" clip-rule="evenodd" d="M30.208 28.318L30.233 28.303C30.79 27.9659 31.1969 27.4285 31.3704 26.801C31.5438 26.1734 31.4707 25.5033 31.166 24.928L28.26 19.392L6.382 30.98L14.208 35.519C14.7524 35.8347 15.3706 36.001 16 36.001C16.6294 36.001 17.2476 35.8347 17.792 35.519L30.208 28.319V28.318ZM3.94 22.347L21.494 2.628L17.792 0.481996C17.2475 0.166353 16.6293 0.00012207 16 0.00012207C15.3707 0.00012207 14.7525 0.166353 14.208 0.481996L1.792 7.68199C1.247 7.99799 0.795 8.452 0.48 9C0.165408 9.54772 -9.32025e-05 10.1684 3.93769e-08 10.8V13.5C3.93769e-08 15.17 0.35 16.821 1.03 18.345C1.70813 19.868 2.69968 21.231 3.94 22.345V22.347V22.347Z" fill="white" fill-opacity="0.6"/>
<path fill-rule="evenodd" clip-rule="evenodd" d="M30.208 7.682L29.789 7.439L19.773 16.689L28.173 24.002C29.498 25.154 29.989 26.835 29.476 28.745L30.208 28.322C30.7537 28.0036 31.2064 27.5477 31.5209 26.9997C31.8353 26.4517 32.0005 25.8308 32 25.199V10.799C31.9996 10.1682 31.8339 9.54849 31.5195 9.00161C31.2051 8.45474 30.7529 7.99976 30.208 7.682V7.682ZM15.57 20.638L3.996 11.668C2.692 10.653 2.103 9.133 2.371 7.347L1.792 7.682C1.247 7.998 0.795 8.452 0.48 9C0.165408 9.54773 -9.32025e-05 10.1684 3.93769e-08 10.8V25.2C3.93769e-08 25.833 0.164 26.455 0.479 27.003C0.793009 27.5508 1.2459 28.0061 1.792 28.323L5.107 30.245L15.57 20.638Z" fill="white"/>
</svg>
